ffmpeg version 5.0 Copyright (c) 2000-2022 the FFmpeg developers
  built with Apple clang version 13.0.0 (clang-1300.0.29.30)
  configuration: --prefix=/usr/local/Cellar/ffmpeg/5.0 --enable-shared --enable-pthreads --enable-version3 --cc=clang --host-cflags= --host-ldflags= --enable-ffplay --enable-gnutls --enable-gpl --enable-libaom --enable-libbluray --enable-libdav1d --enable-libmp3lame --enable-libopus --enable-librav1e --enable-librist --enable-librubberband --enable-libsnappy --enable-libsrt --enable-libtesseract --enable-libtheora --enable-libvidstab --enable-libvmaf --enable-libvorbis --enable-libvpx --enable-libwebp --enable-libx264 --enable-libx265 --enable-libxml2 --enable-libxvid --enable-lzma --enable-libfontconfig --enable-libfreetype --enable-frei0r --enable-libass --enable-libopencore-amrnb --enable-libopencore-amrwb --enable-libopenjpeg --enable-libspeex --enable-libsoxr --enable-libzmq --enable-libzimg --disable-libjack --disable-indev=jack --enable-videotoolbox
  libavutil      57. 17.100 / 57. 17.100
  libavcodec     59. 18.100 / 59. 18.100
  libavformat    59. 16.100 / 59. 16.100
  libavdevice    59.  4.100 / 59.  4.100
  libavfilter     8. 24.100 /  8. 24.100
  libswscale      6.  4.100 /  6.  4.100
  libswresample   4.  3.100 /  4.  3.100
  libpostproc    56.  3.100 / 56.  3.100
Input #0, rawvideo, from 'pipe:':
  Duration: N/A, start: 0.000000, bitrate: 839808 kb/s
  Stream #0:0: Video: rawvideo (RGB[24] / 0x18424752), rgb24, 1080x1080, 839808 kb/s, 30 tbr, 30 tbn
Stream mapping:
  Stream #0:0 -> #0:0 (rawvideo (native) -> h264 (libx264))
[libx264 @ 0x7fdd8b80de00] using cpu capabilities: MMX2 SSE2Fast SSSE3 SSE4.2 AVX FMA3 BMI2 AVX2
[libx264 @ 0x7fdd8b80de00] profile High, level 3.2, 4:2:0, 8-bit
[libx264 @ 0x7fdd8b80de00] 264 - core 163 r3060 5db6aa6 - H.264/MPEG-4 AVC codec - Copyleft 2003-2021 - http://www.videolan.org/x264.html - options: cabac=1 ref=3 deblock=1:0:0 analyse=0x3:0x113 me=hex subme=7 psy=1 psy_rd=1.00:0.00 mixed_ref=1 me_range=16 chroma_me=1 trellis=1 8x8dct=1 cqm=0 deadzone=21,11 fast_pskip=1 chroma_qp_offset=-2 threads=24 lookahead_threads=4 sliced_threads=0 nr=0 decimate=1 interlaced=0 bluray_compat=0 constrained_intra=0 bframes=3 b_pyramid=2 b_adapt=1 b_bias=0 direct=1 weightb=1 open_gop=0 weightp=2 keyint=250 keyint_min=25 scenecut=40 intra_refresh=0 rc_lookahead=40 rc=crf mbtree=1 crf=15.0 qcomp=0.60 qpmin=0 qpmax=69 qpstep=4 ip_ratio=1.40 aq=1:1.00
Output #0, mp4, to '/Users/jasonlaferrera/personal/processing/video_test_5/myVideo.mp4':
  Metadata:
    comment         : Made with Video Export for Processing - https://git.io/vAXLk
    encoder         : Lavf59.16.100
  Stream #0:0: Video: h264 (avc1 / 0x31637661), yuv420p(tv, progressive), 1080x1080, q=2-31, 30 fps, 15360 tbn
    Metadata:
      encoder         : Lavc59.18.100 libx264
    Side data:
      cpb: bitrate max/min/avg: 0/0/0 buffer size: 0 vbv_delay: N/A
frame=    1 fps=0.0 q=0.0 size=       0kB time=00:00:00.00 bitrate=N/A speed=   0x    frame=    7 fps=0.0 q=0.0 size=       0kB time=00:00:00.00 bitrate=N/A speed=   0x    frame=   15 fps= 15 q=0.0 size=       0kB time=00:00:00.00 bitrate=N/A speed=   0x    frame=   23 fps= 15 q=0.0 size=       0kB time=00:00:00.00 bitrate=N/A speed=   0x    frame=   31 fps= 15 q=0.0 size=       0kB time=00:00:00.00 bitrate=N/A speed=   0x    frame=   38 fps= 15 q=0.0 size=       0kB time=00:00:00.00 bitrate=N/A speed=   0x    frame=   45 fps= 14 q=0.0 size=       0kB time=00:00:00.00 bitrate=N/A speed=   0x    frame=   52 fps= 14 q=0.0 size=       0kB time=00:00:00.00 bitrate=N/A speed=   0x    frame=   59 fps= 14 q=0.0 size=       0kB time=00:00:00.00 bitrate=N/A speed=   0x    frame=   65 fps= 14 q=0.0 size=       0kB time=00:00:00.00 bitrate=N/A speed=   0x    frame=   71 fps= 13 q=21.0 size=       0kB time=00:00:00.00 bitrate=5907.7kbits/s speed=1.23e-05x    frame=   77 fps= 13 q=21.0 size=     768kB time=00:00:00.20 bitrate=31449.0kbits/s speed=0.0344x    frame=   83 fps= 13 q=21.0 size=    2304kB time=00:00:00.40 bitrate=47179.2kbits/s speed=0.063x    frame=   89 fps= 13 q=21.0 size=    3840kB time=00:00:00.60 bitrate=52423.8kbits/s speed=0.0872x    frame=   95 fps= 13 q=21.0 size=    5376kB time=00:00:00.80 bitrate=55046.2kbits/s speed=0.108x    frame=   99 fps= 12 q=-1.0 Lsize=   21052kB time=00:00:03.20 bitrate=53893.3kbits/s speed=0.373x    
video:21050kB audio:0kB subtitle:0kB other streams:0kB global headers:0kB muxing overhead: 0.011102%
[libx264 @ 0x7fdd8b80de00] frame I:1     Avg QP: 0.25  size:   270
[libx264 @ 0x7fdd8b80de00] frame P:25    Avg QP:20.86  size:314423
[libx264 @ 0x7fdd8b80de00] frame B:73    Avg QP:22.59  size:187587
[libx264 @ 0x7fdd8b80de00] consecutive B-frames:  1.0%  2.0%  0.0% 97.0%
[libx264 @ 0x7fdd8b80de00] mb I  I16..4: 100.0%  0.0%  0.0%
[libx264 @ 0x7fdd8b80de00] mb P  I16..4:  5.5%  2.9% 29.9%  P16..4: 16.9% 17.1% 22.7%  0.0%  0.0%    skip: 4.9%
[libx264 @ 0x7fdd8b80de00] mb B  I16..4:  1.3%  0.7%  9.0%  B16..8: 21.3% 16.0% 26.5%  direct:14.3%  skip:10.9%  L0:41.3% L1:39.5% BI:19.2%
[libx264 @ 0x7fdd8b80de00] 8x8 transform intra:6.8% inter:21.7%
[libx264 @ 0x7fdd8b80de00] coded y,uvDC,uvAC intra: 84.2% 89.4% 88.0% inter: 59.6% 78.7% 71.7%
[libx264 @ 0x7fdd8b80de00] i16 v,h,dc,p: 81%  8%  9%  2%
[libx264 @ 0x7fdd8b80de00] i8 v,h,dc,ddl,ddr,vr,hd,vl,hu: 45%  8% 31%  5%  4%  2%  1%  1%  2%
[libx264 @ 0x7fdd8b80de00] i4 v,h,dc,ddl,ddr,vr,hd,vl,hu: 35% 27% 15%  3%  4%  5%  3%  4%  4%
[libx264 @ 0x7fdd8b80de00] i8c dc,h,v,p: 34% 17% 39% 10%
[libx264 @ 0x7fdd8b80de00] Weighted P-Frames: Y:20.0% UV:20.0%
[libx264 @ 0x7fdd8b80de00] ref P L0: 37.9% 11.0% 25.8% 21.2%  4.2%
[libx264 @ 0x7fdd8b80de00] ref B L0: 80.1% 15.2%  4.7%
[libx264 @ 0x7fdd8b80de00] ref B L1: 93.0%  7.0%
[libx264 @ 0x7fdd8b80de00] kb/s:52253.75
Exiting normally, received signal 15.
